<?xml version="1.0" encoding="UTF-8" standalone="no"?
<svg id="svg2" xmlns:rdf="http://www.w3.org/1999/02/22-rdf-syntax-ns#" xmlns="http://www.w3.org/2000/svg" y="0px" xml:space="preserve" height="7" viewBox="0 0 6.8000018 7.0000004" width="6.8" version="1.1" enable-background="new 0 0 16 16" x="0px">
<path id="path4" fill="#d40000" d="m3.9834,3.5,2.6753-2.6753c0.18847-0.18847,0.18847-0.49485,0-0.68332-0.18846-0.18847-0.49485-0.18847-0.68332,0l-2.6754,2.6751-2.6753-2.6752c-0.18847-0.18847-0.49485-0.18847-0.68332,0-0.18847,0.18846-0.18847,0.49485,0,0.68332l2.6751,2.6753-2.6751,2.6752c-0.18847,0.18847-0.18847,0.49485,0,0.68332s0.49485,0.18847,0.68332,0l2.6753-2.6752,2.6752,2.6753c0.18847,0.18847,0.49485,0.18847,0.68332,0s0.18847-0.49485,0-0.68332l-2.6752-2.6753z"/>
</svg>
